<?xml version="1.0" encoding="UTF-8" standalone="no"?>
<!-- Created with Inkscape (http://www.inkscape.org/) -->

<svg
   version="1.1"
   id="svg1"
   width="729.35376"
   height="959.60211"
   viewBox="0 0 729.35376 959.60211"
   xmlns="http://www.w3.org/2000/svg"
   xmlns:svg="http://www.w3.org/2000/svg">
  <defs
     id="defs1" />
  <g
     id="g1"
     transform="translate(-135.3231,-20.198946)">
    <path
       style="fill:#000000;stroke-width:1.25341"
       d="m 202.38757,978.39349 c -31.08673,-6.46819 -56.50324,-31.28296 -64.64417,-63.11371 -2.35692,-9.21543 -2.41315,-18.65862 -2.41315,-405.20143 0,-434.135448 -0.52911,-404.28475 7.52254,-424.392802 11.59574,-28.959001 34.7357,-50.591371 65.17512,-60.928875 l 11.90737,-4.043858 313.06803,-0.330325 c 346.3063,-0.365392 317.82302,-1.035253 323.08718,7.598275 2.41333,3.957985 2.44677,9.54314 2.45139,409.407785 l 0.006,405.39505 -2.60954,5.39059 -2.60955,5.39059 3.75431,6.59917 c 7.46377,13.11954 7.90226,16.68989 7.48403,60.93665 l -0.37891,40.08424 -3.79523,5.39726 c -2.08738,2.96849 -6.22517,7.1051 -9.19512,9.19247 l -5.4002,3.79524 -317.94433,0.19422 c -249.90375,0.15266 -319.55421,-0.14063 -325.46525,-1.37054 z m 628.58402,-62.78774 c 0,-33.44949 -0.49959,-36.44927 -7.27359,-43.67419 -1.8592,-1.98297 -6.20053,-4.93864 -9.64741,-6.56815 l -6.26704,-2.96274 H 500.07193 192.3603 l -6.35585,2.95958 c -11.20856,5.21923 -16.83219,14.75663 -16.83219,28.54655 0,13.72764 4.85916,25.93838 14.30281,35.94195 7.02714,7.44379 11.15229,10.22816 20.05956,13.53966 l 7.62679,2.83547 309.90509,0.0654 309.90508,0.0652 z m -6.26703,-474.3746 V 53.928119 l -296.74431,0.01858 c -328.77953,0.02057 -304.39127,-0.609722 -321.35507,8.304509 -15.3024,8.041181 -27.8377,22.62175 -33.91506,39.448632 l -2.89116,8.00496 v 340.30023 340.30022 l 4.0023,8.4489 c 7.37544,15.56968 21.85971,26.48564 37.88239,28.5498 3.84902,0.49585 143.35333,0.97551 310.00957,1.06589 l 303.01134,0.16434 z M 445.86936,553.86591 445.54868,450.6317 398.54589,450.005 351.5431,449.3783 v -59.53688 -59.53687 l 47.31615,-0.32843 47.31614,-0.32842 v -46.98772 -46.98772 h 59.53688 59.53686 v 47.00279 47.0028 h 47.0028 47.00279 V 389.84142 450.005 H 612.28116 565.3076 l 0.6034,60.47693 c 0.33185,33.2623 0.86921,79.20611 1.1941,102.09734 0.32492,22.89122 0.18125,41.86138 -0.31926,42.1559 -0.5005,0.29452 -27.8393,0.94711 -60.7529,1.45022 l -59.84292,0.91471 z m 86.19509,-34.90809 -0.93204,-102.76405 46.82679,-0.32874 46.82681,-0.32875 v -25.69486 -25.69485 l -46.68944,-0.32861 -46.68945,-0.32861 V 316.50182 269.51427 H 505.71227 480.0174 v 47.0028 47.00279 h -47.00279 -47.00279 v 26.32156 26.32157 h 47.00279 47.00279 v 102.77945 102.77943 h 26.48954 26.48954 z"
       id="path1" />
  </g>
</svg>
